<?xml version="1.0" encoding="UTF-8" standalone="no"?>
<!-- Generator: Adobe Illustrator 12.0.0, SVG Export Plug-In  -->

<svg
   xmlns:osb="http://www.openswatchbook.org/uri/2009/osb"
   xmlns:dc="http://purl.org/dc/elements/1.1/"
   xmlns:cc="http://creativecommons.org/ns#"
   xmlns:rdf="http://www.w3.org/1999/02/22-rdf-syntax-ns#"
   xmlns:svg="http://www.w3.org/2000/svg"
   xmlns="http://www.w3.org/2000/svg"
   xmlns:sodipodi="http://sodipodi.sourceforge.net/DTD/sodipodi-0.dtd"
   xmlns:inkscape="http://www.inkscape.org/namespaces/inkscape"
   version="1.1"
   width="373.75"
   height="402.90625"
   viewBox="-0.574 -0.481 373.75 402.90625"
   enable-background="new -0.574 -0.481 496 445"
   xml:space="preserve"
   id="svg2"
   inkscape:version="0.48.2 r9819"
   sodipodi:docname="cond.svg"><metadata
   id="metadata16"><rdf:RDF><cc:Work
       rdf:about=""><dc:format>image/svg+xml</dc:format><dc:type
         rdf:resource="http://purl.org/dc/dcmitype/StillImage" /><dc:title></dc:title></cc:Work></rdf:RDF></metadata><sodipodi:namedview
   pagecolor="#ffffff"
   bordercolor="#666666"
   borderopacity="1"
   objecttolerance="10"
   gridtolerance="10"
   guidetolerance="10"
   inkscape:pageopacity="0"
   inkscape:pageshadow="2"
   inkscape:window-width="1280"
   inkscape:window-height="752"
   id="namedview14"
   showgrid="false"
   fit-margin-top="0"
   fit-margin-left="0"
   fit-margin-right="0"
   fit-margin-bottom="0"
   inkscape:zoom="1.0606742"
   inkscape:cx="187.12759"
   inkscape:cy="67.725643"
   inkscape:window-x="0"
   inkscape:window-y="0"
   inkscape:window-maximized="1"
   inkscape:current-layer="svg2" />
<defs
   id="defs4"><linearGradient
   id="linearGradient3782"
   osb:paint="gradient"><stop
     style="stop-color:#000000;stop-opacity:1;"
     offset="0"
     id="stop3784" /><stop
     style="stop-color:#000000;stop-opacity:0;"
     offset="1"
     id="stop3786" /></linearGradient>
</defs>
<path
   d="M 283.205,204.519 C 300.576,309.641 301.346,397.44 186.303,397.44 71.259,397.44 77.488,310.399 89.4,204.519 101.347,98.324 132.785,11.599 186.302,11.599 c 53.518,0 79.647,88.495 96.903,192.92 z"
   id="path6"
   inkscape:connector-curvature="0"
   style="fill:#ffffff;stroke:#000000;stroke-width:10" />



<path
   d="M 368.152,144.342 C 367.726,67.065 286.478,4.519 186.302,4.519 86.128,4.519 4.879,67.065 4.454,144.342 h 363.698 z"
   id="path8"
   style="fill:#550000;stroke:#000000;stroke-width:10"
   inkscape:connector-curvature="0" /><path
   inkscape:connector-curvature="0"
   style="fill:#ffd42a;stroke:#080000;stroke-width:3;stroke-miterlimit:4;stroke-opacity:1;stroke-dasharray:none"
   d="m 367.3455,306.26 c 0,51.02783 -41.36624,92.39406 -92.39407,92.39406 -51.02783,0 -92.39407,-41.36623 -92.39407,-92.39406 0,-51.02784 41.36624,-92.39407 92.39407,-92.39407 51.02783,0 92.39407,41.36623 92.39407,92.39407 z"
   id="path3003" /><g
   id="g3857"
   transform="matrix(0.81788963,0,0,0.93622454,52.186422,20.200318)"><path
     sodipodi:nodetypes="ccccc"
     inkscape:connector-curvature="0"
     id="rect3851"
     d="m 254.92388,239.77907 34.88346,0 -4,93.33686 -26.88346,0 z"
     style="fill:#28220b;stroke:#080000;stroke-width:3;stroke-miterlimit:4;stroke-opacity:1" /><path
     sodipodi:nodetypes="ccccc"
     inkscape:connector-curvature="0"
     id="rect3853"
     d="m 258.98108,346.80025 26.76907,0 0,24.51271 -26.76907,0 z"
     style="fill:#28220b;stroke:#080000;stroke-width:3;stroke-miterlimit:4;stroke-opacity:1" /></g></svg>